<svg xmlns="http://www.w3.org/2000/svg" viewBox="0 0 22 5" width="22" height="5">
	<defs>
		<clipPath clipPathUnits="userSpaceOnUse" id="cp1">
			<path d="M-1655 -78L265 -78L265 3565L-1655 3565Z" />
		</clipPath>
	</defs>
	<style>
		tspan { white-space:pre }
		.shp0 { fill: #a7a8ad } 
	</style>
	<g id="Sofa Home Page " clip-path="url(#cp1)">
		<g id="Group 8">
			<g id="add-to-the-cart">
				<path id="Path 3" class="shp0" d="M18.87 0.01C18.61 0.01 18.4 0.22 18.4 0.48C18.4 0.74 18.61 0.95 18.87 0.95C19.73 0.95 20.43 1.65 20.43 2.5C20.43 3.36 19.73 4.06 18.87 4.06C18.01 4.06 17.31 3.36 17.31 2.5C17.31 2.13 17.45 1.76 17.7 1.48C17.82 1.34 17.85 1.14 17.77 0.98C17.69 0.81 17.53 0.7 17.34 0.7L4.54 0.7C4.09 0.27 3.48 0 2.81 0C2.57 0 2.32 0.04 2.09 0.11C1.84 0.18 1.7 0.44 1.78 0.69C1.85 0.94 2.11 1.08 2.36 1C2.51 0.96 2.66 0.94 2.81 0.94C3.68 0.94 4.38 1.64 4.38 2.5C4.38 3.36 3.68 4.06 2.81 4.06C1.95 4.06 1.25 3.36 1.25 2.5C1.25 2.32 1.28 2.14 1.34 1.97C1.43 1.72 1.31 1.46 1.06 1.37C0.82 1.28 0.55 1.41 0.46 1.65C0.36 1.92 0.31 2.21 0.31 2.5C0.31 3.88 1.44 5 2.81 5C4.19 5 5.31 3.88 5.31 2.5C5.31 2.2 5.25 1.91 5.15 1.64L16.53 1.64C16.43 1.91 16.37 2.21 16.37 2.5C16.37 3.88 17.49 5 18.87 5C20.24 5 21.36 3.88 21.36 2.5C21.36 1.13 20.24 0.01 18.87 0.01Z" />
			</g>
		</g>
	</g>
</svg>