<svg xmlns="http://www.w3.org/2000/svg" viewBox="0 0 28 18" width="28" height="18">
	<defs>
		<clipPath clipPathUnits="userSpaceOnUse" id="cp1">
			<path d="M-1653 -60L267 -60L267 3583L-1653 3583Z" />
		</clipPath>
	</defs>
	<style>
		tspan { white-space:pre }
		.shp0 { fill: #a7a8ad } 
	</style>
	<g id="Sofa Home Page " clip-path="url(#cp1)">
		<g id="Group 8">
			<g id="add-to-the-cart">
				<path id="Path 2" class="shp0" d="M26.55 3.13L21.85 3.13C21.6 3.13 21.4 3.34 21.4 3.59L21.4 13.88C21.4 15.55 20.11 16.9 18.52 16.9L4.92 16.9L1.06 4.06L6.86 4.06L10.69 8.07C10.78 8.16 10.89 8.21 11 8.21C11.12 8.21 11.23 8.16 11.32 8.07L15.14 4.06L16.89 4.06C17.14 4.06 17.34 3.85 17.34 3.59C17.34 3.34 17.14 3.13 16.89 3.13L14.96 3.13C14.84 3.13 14.73 3.18 14.64 3.26L11 7.08L7.37 3.26C7.37 3.26 7.37 3.26 7.37 3.26L5.37 1.17L7.15 1.17C7.4 1.17 7.6 0.96 7.6 0.7C7.6 0.44 7.4 0.23 7.15 0.23L4.29 0.23C4.11 0.23 3.94 0.34 3.87 0.52C3.8 0.69 3.84 0.9 3.97 1.03L5.97 3.13L0.45 3.13C0.31 3.13 0.17 3.2 0.09 3.32C0 3.44 -0.02 3.59 0.02 3.74L4.17 17.51C4.22 17.7 4.4 17.83 4.59 17.83L18.52 17.83C20.6 17.83 22.29 16.06 22.29 13.88L22.29 4.06L26.11 4.06L26.11 4.21C26.11 5.46 25.13 6.48 23.94 6.48C23.69 6.48 23.49 6.69 23.49 6.95C23.49 7.2 23.69 7.41 23.94 7.41C25.63 7.41 27 5.97 27 4.21L27 3.59C27 3.34 26.8 3.13 26.55 3.13Z" />
			</g>
		</g>
	</g>
</svg>